<svg xmlns="http://www.w3.org/2000/svg" xmlns:xlink="http://www.w3.org/1999/xlink" viewBox="0 0 1535.13 367.73"><defs><style>.cls-1{fill:#fff;}.cls-2{fill:none;}.cls-3{fill:#186383;}.cls-4{fill:#c4eeff;}.cls-5{fill:#d3670d;}.cls-6{opacity:0.5;}.cls-7{opacity:0.3;}.cls-8{fill:#000072;}.cls-9{fill:#fafbfb;}.cls-10{fill:#452735;}.cls-11{clip-path:url(#clip-path);}.cls-12{fill:#93411d;}.cls-13{clip-path:url(#clip-path-2);}.cls-14{opacity:0.35;}.cls-15{fill:#ed2a84;}.cls-16{fill:#ff002b;}.cls-17{fill:#ffc200;}.cls-18{opacity:0.2;}</style><clipPath id="clip-path"><path class="cls-1" d="M216.42,207.06s49.71,83.26-49.81,116.67c0,0-45.16,60-88,24.56-36-29.72-12.16-89.24,20.92-106.09A33.55,33.55,0,0,0,118,214h0Z"/></clipPath><clipPath id="clip-path-2"><path class="cls-2" d="M166.61,99.4s17.48-.66,27.54,10.95c0,0,27.77-3.06,27.77,57.41,0,0,43.36,67.7-54.65,67.7h-.41c-98,0-54.65-67.7-54.65-67.7,0-60.47,27.77-57.41,27.77-57.41C150,98.74,167.52,99.4,167.52,99.4"/></clipPath></defs><title>Asset 1newnew</title><g id="Layer_2" data-name="Layer 2"><g id="Layer_1-2" data-name="Layer 1"><path class="cls-3" d="M639.23,182.75v-4.07q0-5.19-8.52-14.55-5.09-7.59-11.85-10.45a69.16,69.16,0,0,1-10.37-4.46q-20.28-6.75-33.71-6.75H545.15q-20,2.5-20,4.72-4.07,0-4.07,9.81l.75,8.43a10.32,10.32,0,0,1-.38,2.78c.24,2.46.38,4.72.38,6.76v14.16q0,4.1-3,35.93v5.38a40.42,40.42,0,0,0,.37,5.74,19.68,19.68,0,0,0-.37,4.07q0,5,.37,13.52A88.7,88.7,0,0,0,517,274.42v2.68c0,3.4,2.46,5.1,7.41,5.1a60.3,60.3,0,0,0,8.14,2q7.43,3.06,12.23,3.06a45.77,45.77,0,0,0,13-2q7.88,0,10.74-4.08.84-.84,1.86-11.86v-6.75a41.93,41.93,0,0,1,.36-5.74q-.74-9-.73-22.32a2.39,2.39,0,0,0-.37-1h15.55q11.49,0,31.11-6.39,11.49-4.15,17.41-16.67,6.32-12.85,6.3-22.31v-1.67A32.32,32.32,0,0,0,639.23,182.75Zm-51.12,4.07q0,8.06-8.88,17.22-6.11,4.46-8.89,4.45v-9.82a36.33,36.33,0,0,1,.73-3.8V170.24h.38c4.93.87,9.51,3.46,13.7,7.78,1,0,2.1,2.6,3.34,7.78C588.49,186.48,588.37,186.82,588.11,186.82Z"/><path class="cls-3" d="M752.48,260.9q-1-6.75-6.67-6.76h-2.59a249.86,249.86,0,0,0-30.74,2h-7l-.19-24.63v-3.33q9.16-.18,25.37-1,14.45,0,14.45-5.55-.36-12.87-.37-16.3-1.49-8.88-7-8.89h-4.07q-21.95.83-26.3,1.85h-2.13l-.09-7.59A132.5,132.5,0,0,0,704,174.6c2.6.25,4.08.37,4.46.37q18.69-1.31,30-2.69c4.7-.74,7-3.29,7-7.69V149.5a8.75,8.75,0,0,0-.74-1.76q-.18-5.75-8.15-5.74h-1.48c-1.23,0-4.57.38-10,1.11h-5.56q-25.46,1.86-41.86,2.22-21.84,0-21.84,3c-1.86,0-3.46,2.22-4.82,6.66v3.52q1.11,5.57,3.33,29.92v16.47q0,15.66,1.85,36.86v23.8a30.65,30.65,0,0,0,.75,6.76,16.35,16.35,0,0,0-.38,2v.27q1.31,6.21,4.09,8.81c2.83,2.64,8.26,4,16.29,4h.37q7.23,0,30.74-2.32h23.34c1,0,1.47-.12,1.47-.38q15.2-1.1,16.67-1.65c2.28,0,3.89-2,4.82-6A94.66,94.66,0,0,0,752.48,260.9Z"/><path class="cls-3" d="M854.71,143.76a34.93,34.93,0,0,0-5.93.38c-3.08-.26-4.81-.38-5.18-.38q-19.9.75-31.86.75h-4.82q-3,0-15.55.27-32.6.56-32.6,1.49c-2.46.67-3.7,2.55-3.7,5.64q0,6.21-.37,13.05a40.35,40.35,0,0,1,.37,4.91q1.3,8.81,5.19,8.81,11.94-.37,16.29-.38a67.48,67.48,0,0,0,7.79-.65,97.85,97.85,0,0,1,1.1,14.08v19.81q0,1.11-1.1,10.93.36,36.57.37,41.3c0,1.42.12,2.14.36,2.14a56.32,56.32,0,0,0,1.86,15.83,8.31,8.31,0,0,0,8.14,5.28q18.72.36,21.48.37c1,0,1.49-.13,1.49-.37q16.29-.48,16.3-7.78.36-18.9.37-30.28v-72.7c0-.74,1.6-1.1,4.82-1.1h3.69a15.29,15.29,0,0,0,3.34-.66c.24,0,3.09.23,8.52.66h1.85q4.53,0,5.56-13.06V154Q862.49,143.76,854.71,143.76Z"/><path class="cls-3" d="M997.87,253.49h-.55a2.41,2.41,0,0,0-.66.1q-11.76,1.09-28.06,1.94V235.9c0-.31.26-2.13.75-5.46v-4.82a130,130,0,0,1,.74-15.47q-.37-22.59-.37-37.87v-18.6a11.86,11.86,0,0,0-3-7.6q0-1.67-20.36-1.67h-9.63q-1.95,0-6.31-.37-8,1.49-10.36,2.78-2.24,2.42-2.23,17.5l.37,4.82q-.74,7.68-.73,12.4,0,2.51,1.85,18.25,0,7.77-.38,33.7.36,19.17.38,26.48a129.32,129.32,0,0,0-1.12,13.43q1.86,9.36,3.71,9.35c1.24,3,6.78,4.45,16.67,4.45h5.92q10,0,13-1,12.76,0,29.07-.92l1.3.18h7a12.43,12.43,0,0,0,7-2q3-2.15,3-18.62v-2Q1003.88,253.49,997.87,253.49Z"/><path class="cls-3" d="M1136,194.14c-.61-2.16-1.2-4.13-1.75-5.93l-.28-3.15a15,15,0,0,0,.37-3.52v-.37q-.84-5.64-8.89-15.92,0-1.86-4.82-5.47l-5.92-6.85c-3-1.42-4.45-2.38-4.45-2.87q-6.66-4.17-12.32-4.82a53.06,53.06,0,0,0-12.49-3L1074,140.62h-6.31l-15.17,2.31q-4.1,0-18.89,8c-2.6,2.16-4.46,3.37-5.56,3.62a36.32,36.32,0,0,1-5.93,5.46,126.12,126.12,0,0,0-10.74,15,88.21,88.21,0,0,0-2.22,10.65,2.13,2.13,0,0,0,.09.65c-.75,2.35-1.52,4.93-2.31,7.78q0,4.53-1.86,19.53,0,23.52,1.48,26.58a25.39,25.39,0,0,0,3,9.72,118.81,118.81,0,0,1,4.44,12.42q5.73,9.06,6.67,9.35.74,2.77,10.37,9.07,2.87,1.2,5.37,2a10,10,0,0,0,2,1.21,47.77,47.77,0,0,1,6.67,2.59,72.58,72.58,0,0,0,12.22,3.89q13.7.38,19.62.38a16.84,16.84,0,0,0,4.46-.38c3.38,0,8.33-.86,14.8-2.59q9.18-3.24,13.15-6.11l2.6-1q9.63-6.3,10.37-9.07.93-.3,6.67-9.35a118.81,118.81,0,0,1,4.44-12.42,25.39,25.39,0,0,0,3-9.72q1.47-3.06,1.47-26.58C1136.65,203.68,1136,197.16,1136,194.14Zm-115-10.14c.78-9.35,10.94-19.17,20.3-19.6,9.12-.42,14.94,6.46,13.06,15.42a22.38,22.38,0,0,1-6.08,11.12,23.35,23.35,0,0,1-11.43,6.71C1027.38,199.82,1020.26,193.7,1021.06,184Zm102.2,62.92c-.82,9.7-10.85,19.32-20.57,19.73-8.72.37-14.42-6.27-12.85-14.94.83-4.49,3.13-8.7,7.32-12.8a20.43,20.43,0,0,1,12.64-5.86C1118.5,232.52,1124,238.24,1123.26,246.92Zm5.41-44.55c-1.06,12.76-13.69,25.14-26.47,25.95-6.44.4-11.63-2.41-14.43-6.94l-.17,5.17a4.4,4.4,0,0,0-.28,1c-.66,5.82-1.18,9.56-1.59,11.23v0a47.64,47.64,0,0,1-.94,9.07c-1,5.11-2.16,10.19-5,14.72-3.41,5.41-7.67,9.74-14,11.57-6.9,2-14.46-.13-16.85-9.06-1.27-4.73-2.14-9.58-3.64-14.22a15.43,15.43,0,0,0-9.57-9.94c-3.43-1.28-7.07-2-10.59-3a47.16,47.16,0,0,1-6.22-2.05c-6.13-2.77-8.71-8.12-7.23-14.74a20.13,20.13,0,0,1,5.8-10.08,33,33,0,0,1,17.41-8.6c3.61-.62,7.21-1.61,10.84-1.77a34,34,0,0,1,12.56,1.77c.25-1.73.54-3.3.84-4.71v-6.27a17,17,0,0,1-.64-9.2,29.26,29.26,0,0,1,8.48-15.72,30,30,0,0,1,15.18-8.32c11.16-2.37,20.06,5.41,19.06,16.75-.69,8-5.8,15.76-12.65,20.7l-.21,6.61a31.61,31.61,0,0,1,5.95-8.33c4.93-4.79,10.48-7.87,17.15-8.56C1122.12,184.32,1129.54,191.71,1128.67,202.37Z"/><path class="cls-3" d="M1088.6,195.69l-.21,6.61h0a30.2,30.2,0,0,0-2.38,6.8,16.32,16.32,0,0,0,1.76,12.27l-.17,5.17a4.4,4.4,0,0,0-.28,1c-.66,5.82-1.18,9.56-1.59,11.23,0-.74,0-1.48-.1-2.21-.91-10.77-6.23-19.38-14.24-26.37a39,39,0,0,0-13.06-7.75c.25-1.73.54-3.3.84-4.71v-6.27c2.3,6.2,8.41,10.13,16.22,9.42A27,27,0,0,0,1088.6,195.69Z"/><path class="cls-3" d="M1281,193.68q-4.83-14.27-6.67-16.3-.29-1.59-4.44-7.78c-6.11-4.64-9.21-7.23-9.27-7.78q-21.12-15.93-35.56-15.93a123,123,0,0,0-31.48-3.71h-5.92q-8.52,0-23,2.69a28.45,28.45,0,0,0-3.32,1.76,21.12,21.12,0,0,0-3.34,1.67q-3.69,1.84-3.7,10.37,0,3.9.37,11.85a12.28,12.28,0,0,0-1.11,5.19v11.48a37.93,37.93,0,0,0,.74,5.19,20.17,20.17,0,0,1-.37,3.33,66,66,0,0,0,1.48,8.89,43.42,43.42,0,0,1-1.11,7q.36,13.89.37,18.52a13.46,13.46,0,0,0,.74,3.33L1153.53,275v4.08a3.74,3.74,0,0,0,.37,1.85q1.93,6.68,5.93,6.67h.46q7.59,3,20.28,3h21.48q18.53-.28,18.52-1.66a147.56,147.56,0,0,0,18.52-2.78c6.67-1.55,10.49-3.13,11.49-4.72,6-3.28,9.81-5.86,11.48-7.78q8.06-8.14,14.44-22.32,2.6-4.35,4.82-14.91,1.74,0,2.59-26.11Q1282.07,197.94,1281,193.68Zm-44.46,30.83c0,1.55-.24,2.31-.73,2.31l-3.71,18.71q-4.26,7.22-8.52,10.09,0,1.77-14.9,4.91a56.72,56.72,0,0,0,.46-8.15v-.74a117.68,117.68,0,0,0-.75-13.7c.26-3.34.38-5.8.38-7.41-.75-6.55-1.12-10.12-1.12-10.75a65.83,65.83,0,0,1,.37-6.66q-.36-13.89-.37-25.56v-1.48a47.3,47.3,0,0,1,1.12-10.74v-1.85a7.14,7.14,0,0,0-.09-1.12h1.94l1.85.28a45.41,45.41,0,0,1,10,5.09q2.68,3.06,3.34,3.06a51.25,51.25,0,0,1,6.66,11.85q3.33,4.08,3.34,21v5.38c.49,2.22.73,3.46.73,3.7Z"/><path class="cls-3" d="M1418.18,216.83q-2-6.3-7-6.31H1400c-.37,0-2.35.26-5.93.75h-9.26q-11.58,1.11-15.56,1.11h-1.85q-5.92,0-5.92,8.89v8.14l.36,4.45q1,5.94,7.41,5.93h8.06q0,11.76-.37,16.85v.1q0,3.33-3.71,5.46c-5.12,1.35-8.92,2-11.39,2q-1.29,0-5.92-1.76l-3.89-2.42a59.21,59.21,0,0,1-4.26-8.14,66,66,0,0,0-1.11-10.55v-9.45q.09-5.1.75-5.1.74-22.5,1.47-23.89,0-3.7-.28-13a62.05,62.05,0,0,1,4-13.15,17.33,17.33,0,0,1,13-5.46c3.7.24,5.56.71,5.56,1.39q6.93,0,8.14,20.73c0,4.82,1.12,7.23,3.34,7.23h.09c1.79.87,5.1,1.3,9.91,1.3H1396c7.9-.68,12.48-1.7,13.71-3.06a9.1,9.1,0,0,0,4.07-7.87v-3.43c0-2.53.12-5.8.38-9.81q-3.06-10.84-4.45-12-2.7-6.57-12.22-15.64l-10.38-5.74q-13.61-3.63-20.18-4a8,8,0,0,0-2.78-.48h-12.59a5.22,5.22,0,0,0-2.6.38,15.43,15.43,0,0,1-1.67.1q-25.26,1.38-36.85,18.89a124.71,124.71,0,0,0-9.54,30.27,38.74,38.74,0,0,0-2.68,14.26v7.87a103.15,103.15,0,0,0-1.48,18.06q2.22,15.74,3.33,18.7a1.11,1.11,0,0,1,.28.47c.12.62.28,1.23.46,1.85q3.71,9.72,4.82,14,5.75,9.54,6.66,9.82.73,3,10.38,9.53,10.55,4.36,16,5,1,1.56,24,3.14h1.11a126.3,126.3,0,0,0,17-1.47q8.06-2.15,11.29-4.73,6.86-2.69,16.77-10.09,2.58,0,7-12.6l1.47-6.75q2-3.24,3.06-27.33Q1420.4,228.68,1418.18,216.83Z"/><path class="cls-3" d="M1533.28,260.9q-1-6.75-6.67-6.76H1524a250,250,0,0,0-30.74,2h-7l-.19-24.63v-3.33q9.18-.18,25.38-1,14.44,0,14.44-5.55-.37-12.87-.37-16.3c-1-5.92-3.34-8.89-7-8.89h-4.08q-21.93.83-26.29,1.85H1486l-.1-7.59a134.16,134.16,0,0,0-1.1-16.11c2.59.25,4.07.37,4.44.37q18.71-1.31,30-2.69c4.69-.74,7-3.29,7-7.69V149.5a10.08,10.08,0,0,0-.74-1.76q-.2-5.75-8.15-5.74h-1.48c-1.24,0-4.57.38-10,1.11h-5.56q-25.45,1.86-41.85,2.22-21.87,0-21.86,3-2.77,0-4.81,6.66v3.52q1.11,5.57,3.34,29.92v16.47q0,15.66,1.85,36.86v23.8a30.64,30.64,0,0,0,.74,6.76,17.49,17.49,0,0,0-.37,2v.27q1.29,6.21,4.07,8.81c2.83,2.64,8.27,4,16.3,4h.37q7.22,0,30.74-2.32h23.33c1,0,1.49-.12,1.49-.38q15.18-1.1,16.67-1.65c2.28,0,3.89-2,4.81-6A94.66,94.66,0,0,0,1533.28,260.9Z"/><path class="cls-4" d="M424.47,200.57C424.47,89.8,334.68,0,223.91,0S23.34,89.8,23.34,200.57a200.3,200.3,0,0,0,84.4,163.51H340.08A200.32,200.32,0,0,0,424.47,200.57Z"/><path class="cls-5" d="M33.27,293.53c1.91,10.14,9.06,29,35.8,29v19.61s-53.3-1.54-38.7-48.71A1.5,1.5,0,0,1,33.27,293.53Z"/><g class="cls-6"><path class="cls-1" d="M34.18,298.26A43.84,43.84,0,0,1,33,293.53a1.49,1.49,0,0,0-2.89-.15c-14.61,47.17,38.7,48.71,38.7,48.71v-.53C56.27,339.76,26.6,331.92,34.18,298.26Z"/></g><g class="cls-7"><path class="cls-8" d="M65.44,323.32c-9-1.59-15.14-5.7-19.29-10.57-1,15.07,6.55,23.87,15.43,29a63.55,63.55,0,0,0,12.3,1.9V327.39A32,32,0,0,1,65.44,323.32Z"/></g><path class="cls-3" d="M69.07,345H69c-1.08,0-26.5-1-38.3-17.47-6.46-9-7.51-20.82-3.11-35a4.41,4.41,0,0,1,4.48-3.11A4.35,4.35,0,0,1,36.14,293h0c1.87,9.92,8.64,26.57,32.93,26.57A2.93,2.93,0,0,1,72,322.48v19.61A2.94,2.94,0,0,1,69.07,345ZM31.78,299.54c-2.12,10-.9,18.22,3.65,24.59,7.93,11.1,24,14,30.72,14.79V325.33C43.59,324.17,35,309.64,31.78,299.54Zm-1.39-5.47Z"/><path class="cls-9" d="M219.93,342.12c-.3-24.44,2.32-61,2.32-61l-45.86,21.77c0,29,16.07,61,16.07,61H229a14.77,14.77,0,0,0,1.57-6.59C230.54,350.87,226.3,345.24,219.93,342.12Z"/><g class="cls-7"><path class="cls-3" d="M209.63,344.2c-.29-24.43,10.28-63.25,10.28-63.25l-52.83,21.77c0,29,16.08,61,16.08,61h36.5a14.74,14.74,0,0,0,1.58-6.58C221.24,350.73,216,347.33,209.63,344.2Z"/></g><path class="cls-3" d="M229,366.81H192.46a2.92,2.92,0,0,1-2.61-1.62c-.67-1.33-16.39-33-16.39-62.34a2.94,2.94,0,0,1,1.67-2.64L221,278.44a2.93,2.93,0,0,1,4.18,2.85c0,.36-2.49,35.06-2.33,59.07,6.69,3.87,10.63,10.09,10.63,16.93a17.56,17.56,0,0,1-1.89,7.89A2.9,2.9,0,0,1,229,366.81ZM194.31,361H227a11.56,11.56,0,0,0,.6-3.67c0-5.1-3.36-9.79-9-12.55a2.9,2.9,0,0,1-1.63-2.59c-.23-18.93,1.29-45.39,2-56.29l-39.67,18.83C179.9,328.5,191.22,354.33,194.31,361Z"/><path class="cls-10" d="M143.73,212.73a111.82,111.82,0,0,0-24,4.39,35.57,35.57,0,0,1-19.22,26.77c-32.19,16.39-56,71-30.06,104.06a52.74,52.74,0,0,0,7.94,8.11,57.74,57.74,0,0,0,6.58,4.73c-3.56-5.06-6.25-11-6.55-16.33-.34-6,2.36-11.12,10.28-13.19,24.18-6.32,4.61-45.1,11.77-64.81s20.68-19.91,36.14-23.12S143.73,212.73,143.73,212.73Z"/><path class="cls-8" d="M86.33,362.12l-1.61-1a61,61,0,0,1-6.62-4.77,53.14,53.14,0,0,1-8-8.17c-10.24-13-13.56-30.67-9.37-49.69C65.92,275,81.81,253,100.29,243.55a35.22,35.22,0,0,0,19-26.49l0-.25.24-.07a112.69,112.69,0,0,1,24.13-4.4l.3,0,.09.29c.21.7,5.09,17.11-.18,26a10.62,10.62,0,0,1-7.27,5.13c-1.76.37-3.49.69-5.19,1-13.1,2.47-24.4,4.59-30.67,21.86-2.68,7.41-1.53,17.74-.42,27.73,1.82,16.38,3.71,33.32-11.61,37.32-6.91,1.81-10.36,6.23-10,12.79.27,4.78,2.63,10.66,6.47,16.14ZM120,217.42a36,36,0,0,1-19.4,26.82c-18.28,9.31-34,31.18-39.14,54.42-4.14,18.79-.87,36.21,9.22,49a53,53,0,0,0,7.88,8.05,60.48,60.48,0,0,0,5,3.69c-3.34-5.18-5.3-10.44-5.56-15-.27-4.87,1.34-11.18,10.57-13.59,14.67-3.83,12.9-19.69,11-36.49-1.12-10.08-2.28-20.5.47-28.07,6.42-17.69,17.93-19.86,31.25-22.36,1.7-.32,3.43-.65,5.18-1a9.89,9.89,0,0,0,6.76-4.77c4.72-7.94.83-22.79.19-25.06A114.7,114.7,0,0,0,120,217.42Z"/><path class="cls-1" d="M216.42,207.06s49.71,83.26-49.81,116.67c0,0-45.16,60-88,24.56-36-29.72-12.16-89.24,20.92-106.09A33.55,33.55,0,0,0,118,214h0Z"/><g class="cls-11"><path class="cls-5" d="M164,197.35S149.14,215.41,181,237.29s22.53,52,8,55c0,0,.84-17.06-31.08-20.06s-6.13,72.81-6.13,72.81l-7.84.54a26.84,26.84,0,0,0-12.23-5.2s14.38-18.26-11.7-21.67S90.59,337,66.28,341.88,18.39,276.39,59.79,228.1,164,197.35,164,197.35Z"/></g><path class="cls-12" d="M100.83,244.81c-17,8.65-31.81,29.8-36,51.44v0s0,0,0,0C61.94,309.42,62,321,64.94,331c1.16-3.8,4.57-6.4,12.37-6.08,26.88,1.12,11.21-37.17,11.7-54.23s18.28-13.89,25.84-21.69c4.26-4.4,2.36-11.34-.11-16.56A37,37,0,0,1,100.83,244.81Z"/><g class="cls-6"><path class="cls-1" d="M103.6,247.14a33.57,33.57,0,0,0,18.46-28.21l95.77-6.74c-1.75-3.75-3-5.91-3-5.91l-98.45,6.94h0a33.59,33.59,0,0,1-18.47,28.21C65,258.17,41.3,317.06,76.32,347,49.91,315.82,72.7,262.87,103.6,247.14Z"/></g><path class="cls-3" d="M138.84,352.11a2.93,2.93,0,0,1-1.58-5.39c15.89-10.13,26.9-24.6,27-24.75a3,3,0,0,1,1.41-1c29.81-10,48.8-25.51,56.43-46.08,10.42-28.11-3.64-57.75-7.35-64.77l-94.1,6.63a36.71,36.71,0,0,1-19.83,28.07c-17,8.65-31.81,29.8-36,51.44a2.92,2.92,0,0,1-5.74-1.12c4.63-23.66,20.35-46,39.12-55.53A30.76,30.76,0,0,0,115,213.86a2.94,2.94,0,0,1,2.72-2.78l98.45-6.94a3,3,0,0,1,2.72,1.42c.88,1.48,21.5,36.65,8.68,71.31-8.19,22.13-28.12,38.73-59.23,49.35a121.75,121.75,0,0,1-28,25.43A2.92,2.92,0,0,1,138.84,352.11Z"/><g class="cls-7"><path class="cls-3" d="M216.41,207.06,118,214h0c0,.27,0,.54-.07.82-.15,4.13,1.52,23,43,32.6,46.8,10.88,8.77,84.69-40.95,54.12-25-15.38-45.83-5.18-59,.57-4.36,19.69-1.6,38.68,15.38,52.72,42.86,35.42,90.26-31.1,90.26-31.1C266.13,290.32,216.41,207.06,216.41,207.06Z"/></g><path class="cls-1" d="M130.79,340.39a71.84,71.84,0,0,0,4-16,8.75,8.75,0,0,0,.2-1.61h0c.11-3.56-2.08-7.36-8-11.25-19.36-12.79-24.11,12.88-49.71,13.41-17.52.37-15.39-29.27-15.39-29.27-11.68,53.92,28.45,68.19,28.45,68.19h57C150.56,346.21,141.13,341.07,130.79,340.39Z"/><path class="cls-3" d="M61.93,298.61a3.66,3.66,0,0,1-.57-.05,2.93,2.93,0,0,1-2.31-3.43c4.63-23.66,20.35-46,39.12-55.53A30.76,30.76,0,0,0,115,213.86a2.93,2.93,0,0,1,5.85.28,36.63,36.63,0,0,1-20.06,30.67c-17,8.65-31.81,29.8-36,51.44A2.92,2.92,0,0,1,61.93,298.61Z"/><path class="cls-3" d="M108.36,342.72a60.3,60.3,0,0,1,13.81-4.14,38.11,38.11,0,0,1,14.93.08,19.43,19.43,0,0,1,7.4,3.42,16.29,16.29,0,0,1,5.07,6.8,12,12,0,0,1,.67,2,14.47,14.47,0,0,1,.47,2l.3,2,.08,2,0,1-.06,1-.11,1.92c-.12,1.26-.34,2.5-.52,3.75a3,3,0,0,1-3,2.55h-.09l-14.26-.12-14.25-.06H90.32a2.64,2.64,0,0,1-.93-.17c-.55-.2-.93-.36-1.36-.55s-.84-.38-1.24-.58c-.82-.39-1.61-.81-2.39-1.24-1.56-.88-3.06-1.83-4.52-2.85a54.43,54.43,0,0,1-8-7,53.39,53.39,0,0,1-11.21-18,65.21,65.21,0,0,1-2.75-10.23l-.38-2.62-.18-1.3L57.2,321,57,318.37l-.07-2.62a89.35,89.35,0,0,1,2.16-20.68h0a2.92,2.92,0,1,1,5.71,1.25h0a83.73,83.73,0,0,0-2,19.33l.06,2.41.2,2.4.1,1.2.17,1.19.34,2.38a59.31,59.31,0,0,0,2.48,9.21,47.43,47.43,0,0,0,10,16,48.21,48.21,0,0,0,7.18,6.2q2,1.37,4,2.53c.68.38,1.38.74,2.08,1.08.35.17.7.34,1,.49l1,.4-1-.17h28.51l14.25-.06,14.26-.12-3.06,2.55c.14-1.07.31-2.15.42-3.22l.1-1.59.05-.8,0-.77-.05-1.55-.2-1.48a7.51,7.51,0,0,0-.3-1.44,7,7,0,0,0-.43-1.36,10.43,10.43,0,0,0-3.06-4.48,14,14,0,0,0-5.16-2.72,38.42,38.42,0,0,0-13-1.2A92.24,92.24,0,0,0,109,344.56h0a1,1,0,0,1-.58-1.85Z"/><path class="cls-3" d="M135.75,350.22a6.7,6.7,0,0,1,2.09,2.65,13.38,13.38,0,0,1,1.08,3.33,22.63,22.63,0,0,1,.42,3.49c0,.58,0,1.17,0,1.76l-.07,1.75a2.42,2.42,0,0,1-4.84-.19,2.35,2.35,0,0,1,.19-.85l0-.07.61-1.41c.19-.48.35-1,.53-1.44a20.18,20.18,0,0,0,.75-3,11.69,11.69,0,0,0,.15-3.07A6.12,6.12,0,0,0,135.75,350.22Z"/><path class="cls-3" d="M124.5,351.81a13.9,13.9,0,0,1,1.62,2.5,17.33,17.33,0,0,1,1.18,2.84,16.9,16.9,0,0,1,.69,3.11,19,19,0,0,1,.12,3.3v0a2.43,2.43,0,1,1-4.86-.18,2.39,2.39,0,0,1,.24-1,14.2,14.2,0,0,0,.94-2.38,13.31,13.31,0,0,0,.51-2.63,15.15,15.15,0,0,0,0-2.78A13.94,13.94,0,0,0,124.5,351.81Z"/><path class="cls-3" d="M118.9,308a19.51,19.51,0,0,1,5.28.83,22.58,22.58,0,0,1,5,2.17,19.06,19.06,0,0,1,4.45,3.61A16.62,16.62,0,0,1,138,325.5a26.5,26.5,0,0,1-.62,5.74,39.29,39.29,0,0,1-3.81,10.35,2.63,2.63,0,0,1-4.72-2.32l0,0a35.68,35.68,0,0,0,3.08-9,20.94,20.94,0,0,0,.27-4.51,23,23,0,0,0-.66-4.25,16.21,16.21,0,0,0-4.48-7.67A31.92,31.92,0,0,0,118.9,308Z"/><path class="cls-9" d="M166.61,99.4s17.48-.66,27.54,10.95c0,0,27.77-3.06,27.77,57.41,0,0,43.36,67.7-54.65,67.7h-.41c-98,0-54.65-67.7-54.65-67.7,0-60.47,27.77-57.41,27.77-57.41C150,98.74,167.52,99.4,167.52,99.4"/><path class="cls-8" d="M167.27,235.85h-.41c-32.43,0-52.92-7.4-60.9-22-10.48-19.15,4.76-44.43,5.86-46.22,0-32.28,8.08-46.28,14.84-52.33,6.12-5.49,12-5.44,13.15-5.37,8.78-10,23.12-10.88,26.83-10.94.07,0,.22,0,.42,0s.36,0,.43,0c3.71.06,18,1,26.83,10.94,1.18-.07,7-.12,13.15,5.37,6.76,6.05,14.82,20.05,14.84,52.33,1.1,1.79,16.34,27.07,5.86,46.22C220.19,228.45,199.7,235.85,167.27,235.85ZM139.36,110.72c-1.7,0-6.89.43-12.21,5.2-6.63,6-14.55,19.79-14.55,51.84v.12l-.06.09c-.17.26-16.49,26.17-5.9,45.53,7.84,14.31,28.09,21.57,60.22,21.57h.41c32.12,0,52.38-7.26,60.21-21.57,10.6-19.36-5.73-45.27-5.89-45.53l-.06-.09v-.12c0-32-7.92-45.88-14.56-51.84-6.44-5.79-12.72-5.19-12.78-5.18l-.2,0-.13-.15c-8.55-9.86-22.69-10.76-26.35-10.82h-.12c-.24,0-.41,0-.65,0h-.12c-3.66.06-17.81,1-26.35,10.82l-.13.15-.21,0S139.72,110.72,139.36,110.72Z"/><g class="cls-13"><path class="cls-5" d="M172.55,93.73s-19,63.91,30.77,79.51c0,0,27.16,3.4,31.55,29.85S286,87.88,172.55,93.73Z"/><path class="cls-5" d="M162.84,93.73s18.95,63.91-30.77,79.51c0,0-27.16,3.4-31.55,29.85S49.37,87.88,162.84,93.73Z"/><g class="cls-7"><path class="cls-3" d="M222.51,167.76c0-53.35-21.6-57.25-26.69-57.43,5.35,8.11,9.81,22.14,9.81,46.39,0,0,43.36,67.7-54.64,67.7h-.42c-17.62,0-30.67-2.19-40.23-5.78,8.33,9.66,25.24,16.82,57.11,16.82h.42C265.87,235.46,222.51,167.76,222.51,167.76Z"/></g></g><path class="cls-3" d="M167.27,238.38h-.41c-33.43,0-54.67-7.83-63.12-23.29-11.53-21.07,5.29-47.78,6-48.91a2.93,2.93,0,0,1,4.93,3.16c-.16.24-15.68,24.94-5.8,43,7.36,13.43,26.86,20.23,58,20.23h.41c31.12,0,50.62-6.8,58-20.23,9.88-18-5.64-42.72-5.8-43a2.93,2.93,0,0,1,4.93-3.16c.72,1.13,17.54,27.84,6,48.91C221.94,230.55,200.7,238.38,167.27,238.38Z"/><path class="cls-3" d="M194.15,113.28a2.94,2.94,0,0,1-2.21-1c-7.8-9-20.92-9.88-24.37-10h-1c-3.46.07-16.57,1-24.37,10a2.92,2.92,0,0,1-4.42-3.83c9.93-11.46,26-12,29.29-12s19.37.51,29.3,12a2.93,2.93,0,0,1-2.21,4.84Z"/><path class="cls-5" d="M140,110.35s-17.26-15.93-50.44-1.66S42.43,192.09,69,204.6c23.23,11,43.47-16.26,46.79-48.45s11-27.55,11-27.55"/><g class="cls-6"><path class="cls-3" d="M78.26,204.6C51.72,192.09,65.65,123,98.83,108.69A70.31,70.31,0,0,1,120,103c-8-.81-18.33.23-31,5.69C55.79,123,41.87,192.09,68.4,204.6a23.19,23.19,0,0,0,15.35,1.9A26.16,26.16,0,0,1,78.26,204.6Z"/></g><g class="cls-7"><g class="cls-14"><path class="cls-8" d="M106.19,156.43c-4.5,32.27-18,45.66-33.75,49.88,21.21,5.5,39-20.17,42.09-50.16,3-29.43,9.67-28.07,10.79-27.62C123.54,127.72,109.48,132.84,106.19,156.43Z"/></g></g><path class="cls-3" d="M138,112.48l-.1-.09-.17-.14-.35-.27-.76-.55c-.55-.34-1.08-.71-1.65-1a36.37,36.37,0,0,0-3.54-1.75l-1.86-.72c-.61-.25-1.27-.4-1.91-.61-1.26-.43-2.59-.64-3.9-.95s-2.66-.37-4-.56-2.7-.15-4.06-.18l-4.08.16-4.07.51a17.52,17.52,0,0,0-2,.38l-2,.42c-.67.16-1.36.25-2,.46l-2,.6-2,.59-1,.3-1,.37-3.89,1.5-1,.37-.9.42c-.6.26-1.18.59-1.77.89a36,36,0,0,0-3.38,2.12A42.56,42.56,0,0,0,78.51,120a62.45,62.45,0,0,0-9.68,13.3,85,85,0,0,0-6.57,15.31,88.48,88.48,0,0,0-3.53,16.29,66.51,66.51,0,0,0,0,16.44c.71,5.34,2.28,10.58,5.14,14.67a16.76,16.76,0,0,0,2.39,2.77,14.79,14.79,0,0,0,2.84,2.16,6.64,6.64,0,0,0,.78.43,8,8,0,0,0,.83.39c.59.24,1.17.51,1.76.73l1.79.58,1.82.4a19.82,19.82,0,0,0,14.19-3,37.8,37.8,0,0,0,11.06-11.18,67.88,67.88,0,0,0,7.26-14.72,84,84,0,0,0,4-16.16l.57-4.22c.2-1.45.39-2.9.65-4.34s.58-2.89.88-4.33.74-2.87,1.14-4.29a39.31,39.31,0,0,1,3.55-8.31c.39-.66.89-1.28,1.33-1.9l.8-.88a4.07,4.07,0,0,1,.4-.43l.48-.38.47-.36a4.74,4.74,0,0,1,.54-.31l.54-.27.59-.17a2.73,2.73,0,0,1,2.25.4,2.47,2.47,0,0,0-1.93.41l-.38.27-.34.36c-.1.13-.22.22-.31.36l-.27.42a12.07,12.07,0,0,0-.93,1.74c-.22.66-.46,1.28-.66,1.93a63.63,63.63,0,0,0-1.67,8.13c-.16,1.4-.37,2.78-.54,4.17s-.28,2.81-.45,4.2c-.25,2.85-.52,5.56-.86,8.58a90.24,90.24,0,0,1-3.9,17.42,78.56,78.56,0,0,1-3.32,8.36,68.53,68.53,0,0,1-4.43,7.92,49.63,49.63,0,0,1-5.7,7.23,36.83,36.83,0,0,1-7.28,6,29,29,0,0,1-9,3.69,25.32,25.32,0,0,1-9.85.16c-.8-.17-1.6-.36-2.39-.55s-1.55-.49-2.32-.75-1.48-.61-2.22-.92a11.45,11.45,0,0,1-1.12-.54c-.38-.2-.76-.39-1.11-.62a21.43,21.43,0,0,1-4-3,23.45,23.45,0,0,1-3.22-3.77,32.07,32.07,0,0,1-4.2-8.58,48.62,48.62,0,0,1-1.94-9,72.69,72.69,0,0,1,.24-18,95.1,95.1,0,0,1,4-17.37,91.77,91.77,0,0,1,7.12-16.34,68.35,68.35,0,0,1,10.69-14.48,49,49,0,0,1,7-5.92,39.83,39.83,0,0,1,4-2.43c.69-.36,1.37-.73,2.08-1l1.07-.49,1-.4,4.16-1.61,1-.4,1.07-.33,2.15-.64,2.15-.64c.71-.23,1.46-.34,2.19-.51l2.2-.47c.74-.14,1.47-.35,2.22-.42l4.5-.56,4.54-.19c1.52,0,3.05.13,4.57.19s3,.35,4.55.63,3,.59,4.48,1.08c.74.24,1.49.42,2.21.7l2.17.83a42.94,42.94,0,0,1,4.19,2.08c.69.38,1.35.83,2,1.26a22.35,22.35,0,0,1,2,1.56,2.89,2.89,0,0,1-3.79,4.37Z"/><path class="cls-5" d="M195.17,110.35s17.25-15.93,50.44-1.66,47.1,83.4,20.57,95.91c-23.23,11-43.47-16.26-46.79-48.45s-10.95-27.55-10.95-27.55"/><g class="cls-6"><path class="cls-1" d="M245.61,108.69c-28.29-12.16-45-2.38-49.32.77,7.83-3.53,22.56-6.81,43.87,2.35,31.45,13.52,45.59,76.32,24.39,93.49.54-.22,1.09-.45,1.63-.7C292.71,192.09,278.79,123,245.61,108.69Z"/></g><path class="cls-3" d="M193.2,108.22a22.38,22.38,0,0,1,2.05-1.56c.67-.43,1.33-.88,2-1.26a44.25,44.25,0,0,1,4.2-2.08l2.17-.83c.72-.28,1.47-.46,2.2-.7,1.47-.49,3-.74,4.48-1.08s3-.43,4.55-.63,3-.16,4.57-.19l4.55.19,4.49.56c.76.07,1.48.28,2.22.42l2.2.47c.73.17,1.48.28,2.19.51l2.15.64,2.15.64,1.07.33,1.05.4,4.16,1.61,1,.4,1.06.49c.72.31,1.39.68,2.09,1a39.68,39.68,0,0,1,3.94,2.43,48.43,48.43,0,0,1,7,5.92,68,68,0,0,1,10.69,14.48,91.05,91.05,0,0,1,7.12,16.34,96,96,0,0,1,4,17.37,72.69,72.69,0,0,1,.23,18,47.06,47.06,0,0,1-1.94,9,32.33,32.33,0,0,1-4.19,8.58,24,24,0,0,1-3.22,3.77,21.76,21.76,0,0,1-4,3c-.36.23-.74.42-1.11.62s-.76.4-1.12.54c-.74.31-1.47.64-2.23.92s-1.54.52-2.31.75-1.6.38-2.4.55a25.32,25.32,0,0,1-9.85-.16,28.81,28.81,0,0,1-9-3.69,36.89,36.89,0,0,1-7.29-6,50.32,50.32,0,0,1-5.7-7.23A68.44,68.44,0,0,1,224,185a76.56,76.56,0,0,1-3.33-8.36,91,91,0,0,1-3.9-17.42c-.34-3-.61-5.73-.85-8.58-.18-1.39-.31-2.79-.46-4.2s-.38-2.77-.54-4.17a62,62,0,0,0-1.67-8.13c-.2-.65-.43-1.27-.66-1.93a13.09,13.09,0,0,0-.92-1.74l-.27-.42a3.59,3.59,0,0,0-.32-.36l-.33-.36-.39-.27a2.45,2.45,0,0,0-1.93-.41,2.73,2.73,0,0,1,2.25-.4l.6.17.54.27a5.64,5.64,0,0,1,.53.31l.48.36.47.38a5.6,5.6,0,0,1,.41.43l.8.88c.43.62.93,1.24,1.32,1.9a38.3,38.3,0,0,1,3.55,8.31c.4,1.42.79,2.85,1.15,4.29s.61,2.88.87,4.33.46,2.89.66,4.34l.56,4.22a84.79,84.79,0,0,0,4,16.16,67.4,67.4,0,0,0,7.25,14.72,37.71,37.71,0,0,0,11.07,11.18,19.79,19.79,0,0,0,14.18,3l1.82-.4,1.8-.58c.59-.22,1.17-.49,1.76-.73a8.88,8.88,0,0,0,.82-.39,6.64,6.64,0,0,0,.78-.43,15.18,15.18,0,0,0,2.85-2.16,17.77,17.77,0,0,0,2.39-2.77c2.86-4.09,4.42-9.33,5.14-14.67a67,67,0,0,0,0-16.44,89.33,89.33,0,0,0-3.54-16.29,85.67,85.67,0,0,0-6.56-15.31,62.45,62.45,0,0,0-9.68-13.3,43.66,43.66,0,0,0-6.13-5.27,36.2,36.2,0,0,0-3.39-2.12c-.59-.3-1.16-.63-1.77-.89l-.9-.42-1-.37-3.9-1.5-1-.37-1-.3-2-.59-2-.6c-.66-.21-1.34-.3-2-.46l-2-.42a18.1,18.1,0,0,0-2-.38l-4.07-.51-4.08-.16c-1.35,0-2.71.13-4.06.18s-2.68.32-4,.56-2.64.52-3.9.95c-.64.21-1.29.36-1.91.61l-1.86.72a36.37,36.37,0,0,0-3.54,1.75c-.57.32-1.1.69-1.64,1l-.77.55-.34.27-.18.14-.1.09-.13.11a2.9,2.9,0,0,1-3.8-4.37Z"/><ellipse class="cls-1" cx="166.86" cy="219.3" rx="29.64" ry="42.54"/><path class="cls-8" d="M166.86,262.23c-16.56,0-30-19.26-30-42.93s13.47-42.94,30-42.94,30,19.26,30,42.94S183.41,262.23,166.86,262.23Zm0-85.09c-16.13,0-29.25,18.91-29.25,42.16s13.12,42.15,29.25,42.15,29.24-18.91,29.24-42.15S183,177.14,166.86,177.14Z"/><path class="cls-3" d="M166.86,264.77c-18,0-32.56-20.4-32.56-45.47s14.6-45.47,32.56-45.47,32.56,20.4,32.56,45.47S184.81,264.77,166.86,264.77Zm0-85.09c-14.73,0-26.72,17.77-26.72,39.62s12,39.62,26.72,39.62,26.71-17.78,26.71-39.62S181.59,179.68,166.86,179.68Z"/><circle class="cls-3" cx="166.61" cy="230.37" r="20.8"/><path class="cls-15" d="M166.61,289.72c14.85,0,23.64-11.45,20-34.52a54.5,54.5,0,0,0-2.09-8.63c-5.69-17.19-30.11-17.19-35.81,0a54.5,54.5,0,0,0-2.09,8.63C143,278.27,151.76,289.72,166.61,289.72Z"/><path class="cls-8" d="M166.61,290.11c-6.57,0-12-2.26-15.6-6.52-5.13-6-6.78-15.83-4.78-28.45a55.9,55.9,0,0,1,2.1-8.69,19,19,0,0,1,18.28-13.16h0a19,19,0,0,1,18.27,13.16,55.08,55.08,0,0,1,2.11,8.69c2,12.62.34,22.45-4.78,28.45C178.57,287.85,173.17,290.11,166.61,290.11Zm0-56a18.19,18.19,0,0,0-17.54,12.63,54.25,54.25,0,0,0-2.07,8.56c-2,12.39-.37,22,4.6,27.82,3.49,4.09,8.68,6.25,15,6.25s11.52-2.16,15-6.25c5-5.82,6.56-15.44,4.6-27.82a54.54,54.54,0,0,0-2.08-8.56A18.18,18.18,0,0,0,166.61,234.07Z"/><g class="cls-6"><path class="cls-1" d="M177.4,286.14c-20.63,0-32.84-13.54-27.77-40.8.08-.43.18-.84.26-1.25a20.42,20.42,0,0,0-1,2.48,54.5,54.5,0,0,0-2.09,8.63c-3.65,23.07,5.14,34.52,20,34.52a20.53,20.53,0,0,0,12.3-3.62C178.52,286.12,178,286.14,177.4,286.14Z"/></g><g class="cls-7"><path class="cls-3" d="M145.55,269a54.24,54.24,0,0,1,2.09-8.63c5.69-17.2,30.11-17.2,35.81,0a55.36,55.36,0,0,1,2.08,8.63c.14.83.25,1.65.35,2.45a52.67,52.67,0,0,0-.35-16.21,79.47,79.47,0,0,0-2.8-10.47c-5.69-17.2-29.4-15.35-35.09,1.84a54.5,54.5,0,0,0-2.09,8.63,52.67,52.67,0,0,0-.35,16.21C145.3,270.61,145.41,269.79,145.55,269Z"/></g><path class="cls-3" d="M169.53,221.52c0,3.36-.06,6.72-.19,10.08s-.34,6.72-.57,10.08-.51,6.72-.86,10.08-.75,6.72-1.3,10.08c-.56-3.36-1-6.72-1.31-10.08s-.63-6.72-.86-10.08-.43-6.72-.56-10.08-.23-6.72-.2-10.08a2.93,2.93,0,0,1,5.85,0Z"/><path class="cls-3" d="M166.61,292.64c-7.33,0-13.39-2.56-17.53-7.41-5.62-6.57-7.47-17.12-5.35-30.48,3.81-24.08,20.57-35.22,21.28-35.68a2.93,2.93,0,0,1,3.19,0c.71.46,17.48,11.6,21.29,35.68,2.12,13.36.27,23.91-5.35,30.48C180,290.08,173.94,292.64,166.61,292.64Zm0-67.46a49.77,49.77,0,0,0-17.11,30.48c-1.84,11.63-.45,20.54,4,25.77,3,3.56,7.43,5.36,13.08,5.36s10-1.8,13.08-5.36c4.47-5.23,5.86-14.14,4-25.77A49.77,49.77,0,0,0,166.61,225.18Z"/><path class="cls-1" d="M166.61,162.55c20.71,0,49.81,10,49.81,30.7s-29.1,38.89-49.81,38.89S116.8,214,116.8,193.25,145.89,162.55,166.61,162.55Z"/><path class="cls-8" d="M166.61,232.53c-19.83,0-50.2-17.6-50.2-39.28,0-21.21,30-31.08,50.2-31.08s50.2,9.87,50.2,31.08C216.81,214.93,186.43,232.53,166.61,232.53Zm0-69.59c-19.93,0-49.42,9.63-49.42,30.31,0,19.83,27.84,38.5,49.42,38.5S216,213.08,216,193.25C216,172.57,186.54,162.94,166.61,162.94Z"/><g class="cls-7"><path class="cls-8" d="M204.63,173.85A21.05,21.05,0,0,1,208.51,186c0,20.71-29.09,38.89-49.8,38.89-11.4,0-25.32-5.5-35.55-13.89,9.91,12.31,28.35,21.1,42.75,21.1,20.72,0,49.81-18.18,49.81-38.89C215.72,185.15,211.27,178.71,204.63,173.85Z"/></g><path class="cls-3" d="M166.61,234.87c-10.74,0-23.87-4.68-34.27-12.2-11.61-8.4-18.27-19.12-18.27-29.42s6.44-19.27,18.62-25.54c9.57-4.94,22.25-7.88,33.92-7.88s24.35,2.94,33.92,7.88c12.18,6.27,18.61,15.1,18.61,25.54s-6.65,21-18.26,29.42C190.48,230.19,177.35,234.87,166.61,234.87Zm0-69.59c-19,0-47.08,8.89-47.08,28,0,18.28,26.95,36.16,47.08,36.16s47.08-17.88,47.08-36.16C213.69,174.17,185.6,165.28,166.61,165.28Z"/><path class="cls-3" d="M167.52,173.49s-27.1-.73-20.88,14a31.39,31.39,0,0,0,9.64,12.56,18.22,18.22,0,0,0,22.49,0,31.46,31.46,0,0,0,9.63-12.56C194.62,172.76,167.52,173.49,167.52,173.49Z"/><path class="cls-3" d="M167.52,206.92a21,21,0,0,1-13.05-4.54A34.15,34.15,0,0,1,144,188.67c-2.14-5.08-.91-8.61.51-10.67,5.18-7.59,20.89-7.49,23.06-7.43s17.88-.16,23.07,7.43c1.41,2.06,2.64,5.59.5,10.67a34.15,34.15,0,0,1-10.52,13.71A21,21,0,0,1,167.52,206.92Zm-1-30.52c-5.73,0-14.76,1.27-17.24,4.9-.32.47-1.29,1.9.06,5.1a28.52,28.52,0,0,0,8.74,11.39,15.23,15.23,0,0,0,18.88,0,28.52,28.52,0,0,0,8.74-11.39c1.35-3.2.38-4.63.06-5.1-2.62-3.83-12.53-5-18.16-4.88h-.16Z"/><ellipse class="cls-1" cx="175.5" cy="180.07" rx="9.77" ry="5.5"/><path class="cls-3" d="M175.5,186c-5.59,0-10.13-2.64-10.13-5.88s4.54-5.87,10.13-5.87,10.13,2.64,10.13,5.87S181.09,186,175.5,186Zm0-11c-5.18,0-9.4,2.3-9.4,5.13s4.22,5.14,9.4,5.14,9.4-2.3,9.4-5.14S180.68,174.94,175.5,174.94Z"/><circle class="cls-1" cx="178.85" cy="190.3" r="2.44"/><path class="cls-3" d="M178.85,193.11a2.81,2.81,0,1,1,2.81-2.81A2.81,2.81,0,0,1,178.85,193.11Zm0-4.89a2.08,2.08,0,1,0,2.07,2.08A2.08,2.08,0,0,0,178.85,188.22Z"/><g class="cls-7"><path class="cls-3" d="M224.32,129.37c.33-13.53,7.15-19,15.68-22.87-29.5-10.27-44.8,3.85-44.8,3.85l13.27,18.25s7.63-4.64,10.95,27.55,23.56,59.4,46.79,48.45c9-4.25,13.34-15,13.86-27.92C257.9,193.86,222.82,192.74,224.32,129.37Z"/></g><path class="cls-9" d="M187.07,342.12c-.3-24.44,1.74-46.43,1.74-46.43l-44.08,21.8c0,29,14.87,46.39,14.87,46.39h36.51a14.77,14.77,0,0,0,1.57-6.59C197.68,350.87,193.44,345.24,187.07,342.12Z"/><path class="cls-3" d="M145.14,317.43a78.67,78.67,0,0,1,4.53,11.41l.9,2.87c.29,1,.56,1.92.87,2.87.62,1.91,1.23,3.82,1.91,5.71,1.29,3.79,2.72,7.54,4.19,11.27s3.07,7.46,4.74,11l-2.68-1.66,18.25.2c6.09.07,12.17.07,18.25.07l-2.44,1.52a11.88,11.88,0,0,0,1.29-5.18,12,12,0,0,0-1.11-5.2,14.69,14.69,0,0,0-3.25-4.47,19.24,19.24,0,0,0-4.72-3.25l0,0a2.68,2.68,0,0,1-1.48-2.4l-.06-13.29c0-4.42.13-8.85.49-13.25s.87-8.8,1.51-13.18a122.64,122.64,0,0,1,2.61-13.06.41.41,0,0,1,.51-.3.43.43,0,0,1,.32.37c.39,4.44.53,8.85.64,13.25s.12,8.79.06,13.18-.21,8.75-.41,13.12-.27,8.73-.22,13.09l-1.53-2.41a24.92,24.92,0,0,1,6.08,4.2,20.05,20.05,0,0,1,4.44,6.14,17.23,17.23,0,0,1-.24,15.09h0a2.75,2.75,0,0,1-2.44,1.51c-6.08,0-12.16,0-18.25.07l-18.25.2a3,3,0,0,1-2.67-1.64v0c-1.88-3.81-3.52-7.54-5-11.41s-2.86-7.75-4.1-11.7c-.62-2-1.16-4-1.7-6s-1.06-4-1.39-6.06c-.18-1-.33-2.05-.46-3.08s-.17-2.08-.23-3.12a32,32,0,0,1,.32-6.32.44.44,0,0,1,.5-.37.42.42,0,0,1,.32.22Z"/><g class="cls-7"><path class="cls-3" d="M164.91,357.28c-7.67-6.61-3.29-42.92,14.63-42.83a17.47,17.47,0,0,1,8,1.82c.52-12.18,1.3-20.58,1.3-20.58l-44.08,21.8c0,29,14.87,46.39,14.87,46.39h36.51a14.52,14.52,0,0,0,1.32-9.25C194.3,361.24,171.79,363.19,164.91,357.28Z"/></g><g class="cls-7"><path class="cls-3" d="M115.79,349.19c-4.08-1.61-3.25-4.54-1.22-7.17-.11,0-6.43-21.5,2.8-26.93,10.26-6,15.27,2.12,15.27,2.12l1.05,10c2.61-4.72,1.75-10.1-6.67-15.66-19.36-12.79-24.11,12.88-49.71,13.41-17.52.37-15.39-29.27-15.39-29.27-11.68,53.92,28.45,68.19,28.45,68.19h41.08C129.85,354.46,123.08,352.05,115.79,349.19Z"/></g><ellipse class="cls-3" cx="189.4" cy="147.75" rx="9.46" ry="12.26" transform="translate(-22.78 35.13) rotate(-10)"/><path class="cls-3" d="M190.25,160.1a7.75,7.75,0,0,1-2.36-.37A11.67,11.67,0,0,1,181,153c-2.68-6.16-1.1-13.51,3.53-16.39a7.6,7.6,0,0,1,6.39-.81,11.7,11.7,0,0,1,6.9,6.77c2.68,6.16,1.09,13.52-3.53,16.4A7.61,7.61,0,0,1,190.25,160.1Zm-1.72-24.39a7.18,7.18,0,0,0-3.84,1.13c-4.5,2.8-6,10-3.41,16h0a11.37,11.37,0,0,0,6.71,6.58,7.21,7.21,0,0,0,6.12-.76c4.49-2.8,6-10,3.41-16a11.36,11.36,0,0,0-6.71-6.59A7.58,7.58,0,0,0,188.53,135.71Z"/><ellipse class="cls-1" cx="185.74" cy="145.86" rx="2.54" ry="4.23" transform="translate(-20.04 29.98) rotate(-8.76)"/><path class="cls-1" d="M193.2,150.59c.28,1.13,1.05,1.89,1.72,1.7s1-1.28.72-2.41-1-1.9-1.72-1.7S192.92,149.45,193.2,150.59Z"/><ellipse class="cls-3" cx="145.78" cy="147.75" rx="12.26" ry="9.46" transform="translate(-25.04 265.66) rotate(-80)"/><path class="cls-3" d="M144.93,160.1a7.61,7.61,0,0,1-4-1.17c-4.62-2.88-6.21-10.24-3.53-16.4a11.7,11.7,0,0,1,6.9-6.77,7.6,7.6,0,0,1,6.39.81c4.63,2.88,6.21,10.23,3.53,16.39h0a11.67,11.67,0,0,1-6.9,6.77A7.7,7.7,0,0,1,144.93,160.1Zm1.72-24.39a7.63,7.63,0,0,0-2.28.36,11.36,11.36,0,0,0-6.71,6.59c-2.61,6-1.08,13.2,3.41,16a7.22,7.22,0,0,0,6.13.76,11.39,11.39,0,0,0,6.7-6.58h0c2.61-6,1.09-13.2-3.41-16A7.18,7.18,0,0,0,146.65,135.71Z"/><ellipse class="cls-1" cx="149.44" cy="145.86" rx="4.23" ry="2.54" transform="matrix(0.15, -0.99, 0.99, 0.15, -17.47, 271.35)"/><ellipse class="cls-1" cx="140.76" cy="150.23" rx="2.12" ry="1.27" transform="translate(-36.01 255.76) rotate(-77.7)"/><path class="cls-3" d="M186.68,350.84a6.7,6.7,0,0,1,2.09,2.65,13.44,13.44,0,0,1,1.08,3.32,22.91,22.91,0,0,1,.42,3.5c0,.58,0,1.17,0,1.76l-.08,1.75a2.42,2.42,0,0,1-4.84-.2,2.58,2.58,0,0,1,.19-.84l0-.07.61-1.41c.19-.48.35-1,.53-1.44a20.18,20.18,0,0,0,.75-3,11.69,11.69,0,0,0,.15-3.07A6.12,6.12,0,0,0,186.68,350.84Z"/><path class="cls-3" d="M176.21,351.65a13.9,13.9,0,0,1,1.62,2.5A17.33,17.33,0,0,1,179,357a16.9,16.9,0,0,1,.69,3.11,19,19,0,0,1,.12,3.3v0a2.43,2.43,0,1,1-4.86-.18,2.56,2.56,0,0,1,.24-1,14.2,14.2,0,0,0,.94-2.38,13.31,13.31,0,0,0,.51-2.63,15.15,15.15,0,0,0,0-2.78A13.94,13.94,0,0,0,176.21,351.65Z"/><path class="cls-3" d="M220.18,350.84a6.59,6.59,0,0,1,2.08,2.65,13.46,13.46,0,0,1,1.09,3.32,24.21,24.21,0,0,1,.41,3.5c0,.58,0,1.17,0,1.76l-.07,1.75a2.42,2.42,0,0,1-4.84-.2,2.34,2.34,0,0,1,.19-.84l0-.07.6-1.41c.19-.48.35-1,.53-1.44a20.18,20.18,0,0,0,.75-3,11.69,11.69,0,0,0,.15-3.07A6.22,6.22,0,0,0,220.18,350.84Z"/><path class="cls-3" d="M211.26,351.65a14.52,14.52,0,0,1,1.63,2.5,18.21,18.21,0,0,1,1.17,2.84,16.9,16.9,0,0,1,.69,3.11,19,19,0,0,1,.12,3.3v0a2.43,2.43,0,0,1-4.86-.18,2.56,2.56,0,0,1,.24-1,14.2,14.2,0,0,0,.94-2.38,13.31,13.31,0,0,0,.51-2.63,15.15,15.15,0,0,0,0-2.78A13.94,13.94,0,0,0,211.26,351.65Z"/><path class="cls-9" d="M423.62,309.12c-1.41-3.56-3.28-6.08-7-3.75-6.09,3.78-.56,14.55.73,19.4,2.06,7.74,3.74,16.28-1.72,23.19-9.14,11.57-28.15,7.81-37.6-1.33-3.81-3.69-7-9-6.5-14.48.23-2.79.9-6.26,4.31-6.23,5.11.06,3.07,4.24,4,7.13,2.59,7.84,17.84,15.9,24.47,8.52,4.28-4.77-1.41-13.55-3.13-18.12-3.85-10.24-5.28-21.18,2.45-29.82,10.15-11.34,26.07-9.7,35.23,2.11,2.82,3.63,5.19,7.75,3.46,12.53C439.33,316.52,427.36,317.11,423.62,309.12Z"/><path class="cls-8" d="M399.44,355.56a32.37,32.37,0,0,1-21.7-8.65c-4.63-4.47-7-9.87-6.62-14.8.26-3.06,1-6.58,4.64-6.58h.06c4,.05,4,2.55,4.09,4.76a9.42,9.42,0,0,0,.3,2.64c1.55,4.68,7.84,9.54,14,10.84,4.11.86,7.59,0,9.78-2.46,3.26-3.63.33-9.93-1.8-14.53-.54-1.17-1.06-2.27-1.4-3.2-4.88-13-4.06-22.86,2.52-30.21a22.28,22.28,0,0,1,17.49-7.8,24.6,24.6,0,0,1,18.34,9.93c2.76,3.56,5.33,7.87,3.51,12.9a10.62,10.62,0,0,1-19.41.89v0c-1-2.55-2-3.88-3.23-4.28a3.86,3.86,0,0,0-3.23.72c-4.66,2.89-2.08,10.24-.19,15.61.45,1.3.85,2.42,1.1,3.36,2.05,7.7,3.76,16.5-1.8,23.54-3.44,4.36-8.52,6.88-14.67,7.3C400.64,355.54,400,355.56,399.44,355.56Zm-23.67-29.25c-3,0-3.63,3-3.87,5.87-.57,6.67,4.27,12.13,6.38,14.17a31.89,31.89,0,0,0,22.91,8.38c5.92-.4,10.8-2.82,14.11-7,5.34-6.76,3.75-15,1.66-22.85-.25-.91-.64-2-1.09-3.3-1.86-5.3-4.67-13.31.52-16.53a4.56,4.56,0,0,1,3.89-.8c1.86.62,3,2.85,3.7,4.73a9.84,9.84,0,0,0,18-.83c1.69-4.68-.77-8.77-3.39-12.16-4.57-5.88-11-9.39-17.76-9.63a21.46,21.46,0,0,0-16.88,7.54c-6.36,7.11-7.14,16.74-2.37,29.42.33.9.84,2,1.38,3.15,2.22,4.79,5.27,11.36,1.67,15.37-2.39,2.66-6.13,3.62-10.52,2.7-6.43-1.34-13-6.44-14.61-11.36a9.75,9.75,0,0,1-.34-2.86c-.05-2.3-.09-4-3.32-4Z"/><g class="cls-7"><path class="cls-8" d="M438.86,295.74c-.17-.23-.36-.43-.54-.65a6.75,6.75,0,0,1-4.17,6c-7.55,3.72-14.52-7.86-23.09-1.41a12.72,12.72,0,0,0-4.9,10c-.33,19.2,15.74,31.86-2.49,32.59-6.93,6.23-21.32-1.58-23.83-9.17-.95-2.89,1.09-7.07-4-7.13-3.41,0-4.08,3.44-4.31,6.23-.47,5.51,2.69,10.79,6.5,14.48,9.45,9.14,28.46,12.9,37.6,1.33,5.46-6.91,3.78-15.45,1.72-23.19-1.29-4.85-6.82-15.62-.73-19.4,3.74-2.33,5.61.19,7,3.75,3.74,8,15.71,7.4,18.7-.85C444.05,303.49,441.68,299.37,438.86,295.74Z"/></g><path class="cls-3" d="M399.46,358.15A35.06,35.06,0,0,1,376,348.77c-5.2-5-7.89-11.17-7.41-16.88.64-7.45,4.35-8.95,7.31-8.94,6.48.07,6.6,5.31,6.64,7.28a8.11,8.11,0,0,0,.18,1.89c1.24,3.77,6.9,8,12.1,9.12,2.24.47,5.34.56,7.33-1.66s-.5-8-2.23-11.71c-.56-1.21-1.09-2.36-1.47-3.38-5.25-14-4.27-24.71,3-32.84A24.74,24.74,0,0,1,420.92,283c7.72.27,15.12,4.25,20.29,10.92,3,3.88,6.17,9.12,3.9,15.38a13.21,13.21,0,0,1-24.19,1.09,1.11,1.11,0,0,0-.07-.16c-1-2.47-1.6-2.77-1.63-2.78a2.39,2.39,0,0,0-1.05.46c-2.9,1.79-.63,8.27.88,12.56.45,1.29.88,2.51,1.16,3.55,2.21,8.3,4,17.82-2.27,25.8-3.91,4.95-9.63,7.81-16.53,8.28Q400.45,358.15,399.46,358.15Zm-23.7-29.25c-.3,0-1,.09-1.29,3.5-.47,5.56,3.77,10.31,5.61,12.09A29.12,29.12,0,0,0,401,352.15a16.64,16.64,0,0,0,12.25-6c4.6-5.82,3.11-13.36,1.19-20.58-.22-.81-.61-1.93-1-3.11-2-5.71-5.36-15.27,1.6-19.59a7,7,0,0,1,6.06-1c2.84.94,4.3,3.76,5.26,6.14a7.26,7.26,0,0,0,13.17-.67c1-2.86.19-5.58-3-9.7-4.09-5.27-9.85-8.42-15.8-8.63a18.94,18.94,0,0,0-14.86,6.69c-5.74,6.41-6.34,14.92-1.88,26.78.3.81.79,1.86,1.3,3,2.39,5.14,6,12.91,1.26,18.19-3,3.37-7.64,4.62-13,3.5-7.36-1.54-14.62-7.28-16.53-13.07a12.29,12.29,0,0,1-.48-3.62,12.07,12.07,0,0,0-.08-1.41,3.17,3.17,0,0,0-.67-.06Z"/><path class="cls-9" d="M262.72,302.8l9.61,47c-4.12,1.62-7.6,5.38-6.72,13.73H294l11.46-60.77Z"/><path class="cls-8" d="M294.32,364H265.26l0-.35c-.75-7.12,1.49-11.84,6.66-14l-9.64-47.19h43.69l-.09.46ZM266,363.18h27.71l11.32-60H263.2l9.57,46.9-.3.12C267.54,352.14,265.35,356.51,266,363.18Z"/><g class="cls-7"><path class="cls-8" d="M262,304.94l19.47,47.51c-4.12,1.61-10.07,3.08-9.19,11.43l8.93-.31h18.87l11.47-60.77Z"/></g><path class="cls-3" d="M294,366.55H265.61a3,3,0,0,1-3-2.67c-1-9.11,2.85-13.55,6.31-15.67l-9.16-44.82a3,3,0,0,1,5.84-1.19l9.6,47.05a3,3,0,0,1-1.83,3.36c-2.14.84-4.82,2.58-5,8h23.08l7.8-41.33a3,3,0,1,1,5.84,1.11l-8.25,43.75A3,3,0,0,1,294,366.55Z"/><path class="cls-9" d="M326.86,252.49S331.5,271.93,350,276s47,20.38,35.23,62.59S310,332.17,310,332.17s-39.84,8.78-54.09-23.63S279.68,221.77,326.86,252.49Z"/><g class="cls-7"><ellipse class="cls-3" cx="299.55" cy="261.78" rx="38.58" ry="31.89"/></g><g class="cls-7"><path class="cls-3" d="M342,320.09c-3.56,2.46-7.88,10.75-7.88,10.75s-4-4.28-45.66-9.3C264.69,318.68,256.06,306.75,253,297a36.19,36.19,0,0,0,2.88,11.53C270.16,341,310,332.17,310,332.17s21.63,16.59,42,22C328.09,337.85,345.32,317.8,342,320.09Z"/></g><circle class="cls-16" cx="298.71" cy="243.39" r="40.18" transform="translate(-76.03 153.74) rotate(-25.72)"/><path class="cls-3" d="M363.54,358.77c-21.33,0-48.46-19.14-54.28-23.43a68.83,68.83,0,0,1-21.43.11c-16.41-2.6-28.39-11.49-34.65-25.71-8.06-18.34-1-43.35,16.46-58.16,16.9-14.35,38.35-14.93,58.85-1.58a3,3,0,0,1,1.27,1.8c.19.78,4.52,17.7,20.84,21.29,7,1.55,24.44,6.89,34.06,22.91,7,11.72,8.17,26.32,3.39,43.39-2.63,9.4-7.87,15.47-15.58,18A28.19,28.19,0,0,1,363.54,358.77ZM310,329.2a3,3,0,0,1,1.81.61c.38.29,38,28.89,58.79,22,5.79-1.93,9.62-6.51,11.72-14,4.32-15.43,3.39-28.45-2.76-38.71-8.43-14.05-24-18.78-30.24-20.17-17.5-3.85-23.61-19.91-25-24.51C306.46,243.2,288,243.8,273.5,256.11c-15.27,13-21.8,35.47-14.87,51.23,5.45,12.4,15.53,19.87,30,22.2a62.16,62.16,0,0,0,20.77-.28A3.47,3.47,0,0,1,310,329.2Z"/><path class="cls-3" d="M298.71,285.91a42.51,42.51,0,1,1,41.19-32h0A42.59,42.59,0,0,1,298.71,285.91Zm0-80.36a37.86,37.86,0,1,0,9.38,1.19A37.41,37.41,0,0,0,298.72,205.55Zm38.91,47.81h0Z"/><g class="cls-7"><path class="cls-8" d="M309.36,204.47a40.19,40.19,0,0,0-44.44,18.28C272.41,226,279.23,230,284.5,237c9.92,13.1,11.53,30.14,11.29,46.42a40.18,40.18,0,0,0,13.57-78.94Z"/></g><circle class="cls-17" cx="289.68" cy="278.64" r="9.96" transform="translate(-101.55 186.48) rotate(-30.63)"/><path class="cls-8" d="M289.68,289a10.22,10.22,0,0,1-2.56-.33,10.32,10.32,0,1,1,2.56.33Zm0-19.93A9.57,9.57,0,1,0,299,281h0a9.57,9.57,0,0,0-6.89-11.65A9.7,9.7,0,0,0,289.68,269.06Z"/><g class="cls-7"><path class="cls-8" d="M295.93,271.27a9.62,9.62,0,0,0-1-.69,10,10,0,0,1-15,9.89,10,10,0,1,0,16-9.2Z"/></g><path class="cls-3" d="M289.68,291.57a13.19,13.19,0,0,1-3.21-.4,12.94,12.94,0,1,1,15.74-9.32h0A13,13,0,0,1,289.68,291.57Zm0-19.92a7,7,0,1,0,6.77,8.72h0a7,7,0,0,0-6.77-8.72Z"/><path class="cls-3" d="M287.21,289.45l-.29,0a1.18,1.18,0,0,1-.84-1.43l2.47-9.64a1.17,1.17,0,0,1,2.27.57l-2.48,9.65A1.16,1.16,0,0,1,287.21,289.45Z"/><path class="cls-9" d="M357.72,189.12,326,192.33a46.28,46.28,0,0,0-32.7-7.73h0L265.51,165.5A5,5,0,0,0,258,168c-2.84,8.28-6.77,23.84-3.11,39.29l0,0a45.55,45.55,0,0,0-8,16c-6,23.54,14.13,40.33,42.45,47.58s54.08,2.24,60.11-21.31a47.15,47.15,0,0,0,0-21.63c8.79-11.32,12.31-25,13.68-32.94A5,5,0,0,0,357.72,189.12Z"/><path class="cls-5" d="M357.72,189.12,326,192.33a47.88,47.88,0,0,0-8.36-4.56,33.88,33.88,0,0,0,32.51,58.58,48.85,48.85,0,0,0-.65-18.44c8.79-11.32,12.31-25,13.68-32.94A5,5,0,0,0,357.72,189.12Z"/><path class="cls-15" d="M269.83,179.26a2.59,2.59,0,0,0-3.93,1.3c-1.4,4.09-3.31,11.6-1.86,19.23.08.39.15.78.25,1.17h0a18.71,18.71,0,0,1,1.85-2.28,32,32,0,0,1,18.1-9.5h0Z"/><path class="cls-8" d="M264,201.39l-.09-.34c-.1-.4-.18-.79-.25-1.19-1.49-7.82.54-15.53,1.87-19.43a3,3,0,0,1,4.52-1.5L285,189.19l-.66.37a31.59,31.59,0,0,0-17.87,9.38,19.29,19.29,0,0,0-1.81,2.23l-.1.15Zm4.37-22.2a2.09,2.09,0,0,0-.7.11,2.2,2.2,0,0,0-1.4,1.39c-1.31,3.82-3.3,11.38-1.85,19a3,3,0,0,1,.07.32c.31-.41.77-1,1.38-1.63a32.22,32.22,0,0,1,17.4-9.45l-13.66-9.38A2.14,2.14,0,0,0,268.37,179.19Z"/><g class="cls-18"><path class="cls-8" d="M274.66,182.32a1.75,1.75,0,0,0-2.7.64,26.27,26.27,0,0,0-2.38,12.7l.09.79h0a12.67,12.67,0,0,1,1.36-1.41,21.37,21.37,0,0,1,12.62-5.25h0Z"/></g><path class="cls-3" d="M264.3,202.52a1.57,1.57,0,0,1-1.53-1.2c-.1-.42-.18-.83-.26-1.24-1.54-8.09.54-16,1.92-20a4.15,4.15,0,0,1,6.28-2.09l14.43,9.92a1.52,1.52,0,0,1,.67,1.31,1.54,1.54,0,0,1-.73,1.29,1.47,1.47,0,0,1-.57.22,30.42,30.42,0,0,0-17.22,9,19.42,19.42,0,0,0-1.68,2.06,1.54,1.54,0,0,1-1.11.7Zm4.07-22.16a1,1,0,0,0-.33,0,1,1,0,0,0-.67.66,39.21,39.21,0,0,0-2.11,16.29,33.17,33.17,0,0,1,15.18-8.93L269,180.54h0A1,1,0,0,0,268.37,180.36Z"/><path class="cls-15" d="M349.44,198.31a2.6,2.6,0,0,1,2.81,3c-.75,4.26-2.71,11.75-7.67,17.73-.25.3-.51.61-.78.91h0a19.1,19.1,0,0,0-.52-2.89A31.92,31.92,0,0,0,332,200h0Z"/><path class="cls-8" d="M343.85,220.51l-.42-.32,0-.19a18.41,18.41,0,0,0-.51-2.82,31.62,31.62,0,0,0-11.11-16.86l-.08-.09-.35-.53.63-.08,17.42-1.7a3,3,0,0,1,3.23,3.5c-.71,4.06-2.67,11.78-7.75,17.91-.26.31-.52.62-.79.92ZM333,200.31A32.27,32.27,0,0,1,343.65,217a20,20,0,0,1,.42,2.08l.21-.25c5-6,6.89-13.56,7.59-17.55a2.19,2.19,0,0,0-.56-1.89,2.21,2.21,0,0,0-1.83-.7Z"/><g class="cls-18"><path class="cls-8" d="M344.18,198.22a1.86,1.86,0,0,1,2.21,2,28.06,28.06,0,0,1-4.27,13.15c-.16.23-.32.47-.49.7h0a13.23,13.23,0,0,0-.57-2,22.78,22.78,0,0,0-9.16-11.4h0Z"/></g><path class="cls-3" d="M343.8,221.55a1.5,1.5,0,0,1-.92-.31,1.59,1.59,0,0,1-.65-1.16,16.5,16.5,0,0,0-.47-2.61,30.44,30.44,0,0,0-10.71-16.23,1.75,1.75,0,0,1-.34-.38,1.57,1.57,0,0,1,1.16-2.4l17.42-1.7h0a4.15,4.15,0,0,1,4.49,4.86c-.73,4.17-2.75,12.12-8,18.45-.27.33-.54.65-.82,1A1.57,1.57,0,0,1,343.8,221.55Zm-8.08-20.34a33.24,33.24,0,0,1,9,15.16,39.31,39.31,0,0,0,6-15.29,1.07,1.07,0,0,0-.27-.9,1,1,0,0,0-.86-.32Z"/><path class="cls-3" d="M311.84,276.67a94.11,94.11,0,0,1-23.16-3.17c-33.26-8.53-50.28-28-44.42-50.91a47.17,47.17,0,0,1,7.65-15.89c-3.36-15.82.69-31.51,3.46-39.57a7.74,7.74,0,0,1,11.69-3.88L294,181.77a48.87,48.87,0,0,1,32.68,7.75l30.78-3.11h0a7.74,7.74,0,0,1,8.39,9c-1.28,7.4-4.71,21.36-13.45,33.14a49.33,49.33,0,0,1-.29,21.65C347.71,267.36,333,276.67,311.84,276.67Zm-54.43-70.32a2.7,2.7,0,0,1-.37,2.58,42.62,42.62,0,0,0-7.5,15c-2.62,10.21,0,19.41,7.66,27.32,7.23,7.43,18.58,13.29,32.83,16.94s27,4,36.94.93c10.55-3.24,17.23-10.06,19.85-20.27a44.62,44.62,0,0,0,0-20.38,2.71,2.71,0,0,1,.51-2.25c8.57-11.05,11.91-24.63,13.14-31.74a2.25,2.25,0,0,0-.58-1.95,2.2,2.2,0,0,0-1.89-.71L326.24,195a2.77,2.77,0,0,1-1.81-.46,43.54,43.54,0,0,0-30.81-7.28,2.73,2.73,0,0,1-2.16-.65L264,167.75a2.26,2.26,0,0,0-2-.29,2.31,2.31,0,0,0-1.45,1.44C257.9,176.56,254,191.56,257.41,206.35Z"/><path class="cls-3" d="M286.52,243.46a17.62,17.62,0,0,0-.87,2.6c-1.87,7.3.84,14.3,6.05,15.64s10.95-3.5,12.82-10.8a17.45,17.45,0,0,0,.49-2.7Z"/><ellipse class="cls-15" cx="294.06" cy="253.98" rx="3.52" ry="5.22" transform="translate(-24.95 475.81) rotate(-75.63)"/><path class="cls-3" d="M295,258a7.69,7.69,0,0,1-1.93-.25,7,7,0,0,1-3.52-2,3.44,3.44,0,0,1-.95-3.14c.54-2.09,3.41-3.16,6.41-2.4s5,3.09,4.46,5.18h0C299.07,257,297.23,258,295,258Zm-2-7.29c-1.85,0-3.36.78-3.68,2.06a2.68,2.68,0,0,0,.77,2.43,6.3,6.3,0,0,0,3.13,1.8c2.58.66,5-.16,5.46-1.83s-1.33-3.57-3.91-4.23A6.89,6.89,0,0,0,293.06,250.72Z"/><path class="cls-3" d="M306.1,237.53c-.83,2.67-6.53,5-9.2,4.15s-5.52-5.78-4.69-8.45,5-2,7.68-1.21S306.92,234.86,306.1,237.53Z"/><path class="cls-1" d="M303.23,236.24c-.14.47-1.22.56-2.41.19s-2-1.05-1.87-1.52,1.22-.57,2.41-.2S303.38,235.76,303.23,236.24Z"/><path class="cls-3" d="M302.18,236.73a4.62,4.62,0,0,1-1.38-.23,4.53,4.53,0,0,1-1.46-.73c-.38-.31-.54-.62-.46-.88s.39-.43.88-.47a4.43,4.43,0,0,1,1.62.22c1.24.38,2.08,1.09,1.92,1.62h0C303.2,236.57,302.77,236.73,302.18,236.73ZM300,234.55h-.23c-.42,0-.69.17-.76.37s.09.46.42.73a4.53,4.53,0,0,0,1.41.71c1.13.34,2.19.27,2.32-.16h0c.14-.43-.7-1.09-1.83-1.43A4.48,4.48,0,0,0,300,234.55Z"/><path class="cls-9" d="M309.5,244.82c-.54,2.09-3.8,5.36-7.49,4.41s-6.25-3.4-5.71-5.49c-.54,2.09-4,3-7.65,2.07s-5-5.38-4.44-7.47"/><path class="cls-3" d="M309.5,244.82a5,5,0,0,1-.68,2.31,7.49,7.49,0,0,1-1.56,2,7.28,7.28,0,0,1-2.28,1.38,6.63,6.63,0,0,1-2.81.35,10.92,10.92,0,0,1-1.34-.23c-.41-.11-.83-.23-1.24-.38A10.54,10.54,0,0,1,297.2,249a7.55,7.55,0,0,1-2.09-2.09,5.25,5.25,0,0,1-.7-1.63,4.49,4.49,0,0,1,0-2,1.94,1.94,0,1,1,3.79.86l0,.1h0a4.53,4.53,0,0,1-1,1.78,5.13,5.13,0,0,1-1.39,1.09,7.82,7.82,0,0,1-2.85.84,10.86,10.86,0,0,1-2.68-.09c-.43-.07-.85-.16-1.27-.27a9.3,9.3,0,0,1-1.28-.44,6.54,6.54,0,0,1-2.3-1.66,7,7,0,0,1-1.34-2.3,7.34,7.34,0,0,1-.42-2.48,4.82,4.82,0,0,1,.52-2.35,7.39,7.39,0,0,0,1.6,3.94,4.91,4.91,0,0,0,2.94,1.95,6.39,6.39,0,0,0,.91.13c.33,0,.65.06,1,.06a9.09,9.09,0,0,0,1.84-.15,4.43,4.43,0,0,0,1.46-.52c.39-.22.46-.42.49-.5l3.77,1a.88.88,0,0,0,.18.67,4.27,4.27,0,0,0,1,1.15,9,9,0,0,0,1.54,1c.28.15.58.28.88.42a8.87,8.87,0,0,0,.87.32,4.91,4.91,0,0,0,3.51-.3A7.32,7.32,0,0,0,309.5,244.82Z"/><line class="cls-9" x1="265.6" y1="233.58" x2="256.34" y2="231.2"/><path class="cls-3" d="M265.33,234.66l-9-3.46,9.54,1.3a1.12,1.12,0,0,1-.3,2.22A.92.92,0,0,1,265.33,234.66Z"/><line class="cls-9" x1="265.33" y1="239.06" x2="255.95" y2="240.92"/><path class="cls-3" d="M265.55,240.15l-9.6.77,9.16-3a1.12,1.12,0,0,1,1.41.73,1.12,1.12,0,0,1-1,1.46Z"/><line class="cls-9" x1="267.45" y1="244.12" x2="259.79" y2="249.85"/><path class="cls-3" d="M268.12,245l-8.33,4.84,7-6.62a1.12,1.12,0,1,1,1.55,1.63Z"/><line class="cls-9" x1="328.86" y1="249.78" x2="338.13" y2="252.16"/><path class="cls-3" d="M329.14,248.7l9,3.46-9.55-1.3a1.12,1.12,0,0,1-1-1.26,1.11,1.11,0,0,1,1.26-1A1.1,1.1,0,0,1,329.14,248.7Z"/><line class="cls-9" x1="326.46" y1="254.72" x2="333.8" y2="260.86"/><path class="cls-3" d="M327.18,253.86l6.62,7-8.05-5.29A1.12,1.12,0,0,1,327,253.7,1,1,0,0,1,327.18,253.86Z"/><line class="cls-9" x1="322.17" y1="258.14" x2="326.13" y2="266.85"/><path class="cls-3" d="M323.19,257.68l2.94,9.17-5-8.25a1.13,1.13,0,0,1,1.93-1.16A1.75,1.75,0,0,1,323.19,257.68Z"/><path class="cls-3" d="M342.24,320.44a33.22,33.22,0,0,0-5.3,7.84,19.72,19.72,0,0,0-2.07,8.45,15.52,15.52,0,0,0,.56,4.09,18.85,18.85,0,0,0,1.47,3.88,44.64,44.64,0,0,0,4.81,7.31l0,0a3,3,0,0,1-4.35,4.06,25.36,25.36,0,0,1-6.35-8.72,9.92,9.92,0,0,1-.52-1.31c-.15-.44-.32-.88-.45-1.33a23.94,23.94,0,0,1-.57-2.8,19,19,0,0,1,0-5.68,21.48,21.48,0,0,1,4.41-9.87,25.76,25.76,0,0,1,7.8-6.64.43.43,0,0,1,.53.66Z"/><path class="cls-9" d="M286.61,311.59l7.81,38.25c-4.11,1.62-7.6,5.38-6.72,13.73h28.39l8.25-43.76Z"/><path class="cls-3" d="M287.05,311.5c1.25,3.07,2.28,6.18,3.27,9.3s1.86,6.26,2.68,9.41,1.58,6.32,2.3,9.49,1.39,6.36,2,9.55v0a3,3,0,0,1-1.82,3.31,8.32,8.32,0,0,0-2.59,1.54,7,7,0,0,0-1.7,2.37,10.78,10.78,0,0,0-.79,3.16,20.78,20.78,0,0,0,0,3.61l-2.75-2.47c2.37,0,4.73,0,7.1,0l7.1,0,14.19-.18L313.18,363c.64-3.65,1.33-7.3,2-10.94l1.11-5.46,1.18-5.44c.78-3.63,1.65-7.24,2.7-10.82a91.09,91.09,0,0,1,3.7-10.63.46.46,0,0,1,.89.17,89.46,89.46,0,0,1-.43,11.25c-.33,3.71-.83,7.39-1.42,11.06l-.89,5.49-1,5.49q-1,5.47-2.09,10.93v.07a2.93,2.93,0,0,1-2.9,2.35l-14.19-.17-7.1-.05c-2.37,0-4.73,0-7.1,0a2.75,2.75,0,0,1-2.74-2.47,26,26,0,0,1-.1-4.68,16.64,16.64,0,0,1,1.11-4.87,12.71,12.71,0,0,1,2.95-4.42,14.06,14.06,0,0,1,4.42-2.8l-1.82,3.34c-.68-3.18-1.3-6.37-1.89-9.57s-1.12-6.41-1.6-9.64-.89-6.46-1.22-9.71-.59-6.52-.65-9.83a.46.46,0,0,1,.89-.18Z"/><path class="cls-9" d="M384.59,340.11s-6.66,20.76-14.77,23.46H324.64s-8-30.68,32.1-13.13"/><path class="cls-3" d="M386.6,342.93c-.75,2.24-1.57,4.3-2.48,6.41a67.61,67.61,0,0,1-3,6.16,38.1,38.1,0,0,1-4,5.88,19.1,19.1,0,0,1-2.71,2.68,11.9,11.9,0,0,1-3.69,2.1,2.8,2.8,0,0,1-.85.14H326.61a2.71,2.71,0,0,1-2.63-2.06c-.13-.51-.2-.87-.28-1.3s-.14-.81-.2-1.22c-.11-.82-.19-1.64-.24-2.47a21.25,21.25,0,0,1,.34-5.12,13.36,13.36,0,0,1,2.15-5.14,11,11,0,0,1,4.51-3.69,13.58,13.58,0,0,1,5.28-1.16,21.43,21.43,0,0,1,4.93.49,29.84,29.84,0,0,1,8.66,3.45.92.92,0,0,1,.33,1.26,1,1,0,0,1-.91.46h0a85.7,85.7,0,0,0-8.6-.77,14.94,14.94,0,0,0-7.24,1.31,6.42,6.42,0,0,0-2.2,2,8.75,8.75,0,0,0-1.25,3,15.39,15.39,0,0,0-.38,3.72c0,.65.05,1.31.12,2,0,.33.08.66.13,1s.12.67.17.88l-2.66-2.06h43.19L369,361a10,10,0,0,0,4-3.12,32.56,32.56,0,0,0,3.4-5,62.1,62.1,0,0,0,2.79-5.67c.84-1.93,1.64-4,2.29-5.91l0-.05a2.73,2.73,0,0,1,5.17,1.73Z"/><g class="cls-7"><path class="cls-8" d="M331.8,345.74c-10.55,3.42-6.81,17.83-6.81,17.83h45.18c6-2,11.19-13.86,13.5-19.91a33.31,33.31,0,0,0,1.86-5.07A72.83,72.83,0,0,0,388.17,324C369.86,349.72,374.76,355.16,331.8,345.74Z"/></g><g class="cls-14"><path class="cls-8" d="M294.42,349.84c-4.11,1.62-7.6,5.38-6.72,13.73h28.39l5.15-27.29C316.14,344,307.86,350.37,294.42,349.84Z"/></g><path class="cls-3" d="M299.9,352.93a5.37,5.37,0,0,0-1.07,2.46,10,10,0,0,0-.13,2.62,17.26,17.26,0,0,0,.38,2.58l.33,1.27.39,1.25,0,.06a2.07,2.07,0,0,1-3.95,1.23,1.88,1.88,0,0,1-.09-.74l.09-1.5c0-.5.11-1,.17-1.49a18.48,18.48,0,0,1,.65-2.93,11.11,11.11,0,0,1,1.2-2.73A5.74,5.74,0,0,1,299.9,352.93Z"/><path class="cls-3" d="M307.27,353.77a13.88,13.88,0,0,0-.9,5,12,12,0,0,0,.22,2.42,12.21,12.21,0,0,0,.63,2.23,2.2,2.2,0,1,1-4.27.62v0a16.75,16.75,0,0,1,.41-3,15.43,15.43,0,0,1,.9-2.74A15.14,15.14,0,0,1,307.27,353.77Z"/><path class="cls-3" d="M274.67,354.25a4.63,4.63,0,0,0-.92,2.15,9.27,9.27,0,0,0-.12,2.29A15.6,15.6,0,0,0,274,361l.29,1.11.34,1.09,0,.05a1.81,1.81,0,1,1-3.45,1.09,1.84,1.84,0,0,1-.08-.65l.08-1.31c0-.44.09-.88.14-1.31a17.21,17.21,0,0,1,.57-2.56,9.79,9.79,0,0,1,1-2.39A5.1,5.1,0,0,1,274.67,354.25Z"/><path class="cls-3" d="M281.68,354.38a13.19,13.19,0,0,0-.84,4.7,12,12,0,0,0,.22,2.26,11.71,11.71,0,0,0,.59,2.09,2.06,2.06,0,0,1-3.87,1.4,2,2,0,0,1-.12-.82v0a15.79,15.79,0,0,1,.38-2.77,14.48,14.48,0,0,1,.84-2.56A14.12,14.12,0,0,1,281.68,354.38Z"/><g class="cls-18"><path class="cls-3" d="M357.42,189.12l-31.75,3.21a46.76,46.76,0,0,0-14.78-6.73c-.41-.11-6.72-1.09-7.14-1.19C322.28,194,340,211.88,340.49,231.2c.73,26.59-9.85,32.69-25.18,42.61,16.74-.95,29.78-8.39,33.85-24.27a47.15,47.15,0,0,0,0-21.63c8.79-11.32,12.31-25,13.68-32.94A5,5,0,0,0,357.42,189.12Z"/></g><path class="cls-3" d="M270.62,218.45a8.87,8.87,0,0,1,5.32-3.08,10.35,10.35,0,0,1,3.29-.06,10,10,0,0,1,3.21,1.1,12.62,12.62,0,0,1,1.38.9,15.58,15.58,0,0,1,1.23,1.08,9.68,9.68,0,0,1,1.87,2.76,6.48,6.48,0,0,1-.28,6.26,11.67,11.67,0,0,0-2.81-4.28,16.83,16.83,0,0,0-1.73-1.43c-.33-.19-.6-.44-1-.62a10.32,10.32,0,0,0-1-.58l-.46-.26c-.16-.07-.32-.13-.48-.21-.31-.18-.66-.25-1-.41A19.4,19.4,0,0,0,276,219,42.61,42.61,0,0,0,270.62,218.45Z"/><path class="cls-3" d="M334.13,232.59a42.34,42.34,0,0,0-5-2.1,19,19,0,0,0-2.22-.56c-.37,0-.71-.13-1.07-.12l-.53-.05h-.52a10.94,10.94,0,0,0-1.13,0c-.39,0-.75.08-1.13.09a16.42,16.42,0,0,0-2.2.42,11.58,11.58,0,0,0-4.54,2.39,6.51,6.51,0,0,1,2.78-5.62,9.75,9.75,0,0,1,3-1.51,14.56,14.56,0,0,1,1.59-.35,12.4,12.4,0,0,1,1.64-.12,9.72,9.72,0,0,1,3.35.58,10.32,10.32,0,0,1,2.85,1.65A8.85,8.85,0,0,1,334.13,232.59Z"/><path class="cls-3" d="M296.3,245.68a1.87,1.87,0,0,1-.62-.1,1.94,1.94,0,0,1-1.22-2.47l1.82-5.39A1.95,1.95,0,1,1,300,239l-1.82,5.39A2,2,0,0,1,296.3,245.68Z"/><path class="cls-3" d="M335.89,352.55a5,5,0,0,0-1,2.32,9.74,9.74,0,0,0-.12,2.47,15.32,15.32,0,0,0,.36,2.43l.3,1.2.37,1.18,0,.05a1.95,1.95,0,1,1-3.72,1.17,2.11,2.11,0,0,1-.09-.7l.09-1.41c0-.47.1-.95.16-1.41a17.56,17.56,0,0,1,.61-2.77,11,11,0,0,1,1.14-2.57A5.47,5.47,0,0,1,335.89,352.55Z"/><path class="cls-3" d="M342.84,353.34a12.64,12.64,0,0,0,0,9.13,2.08,2.08,0,0,1-3.91,1.4,2.15,2.15,0,0,1-.12-.83v0a17,17,0,0,1,.39-2.8,14.71,14.71,0,0,1,.85-2.58A14.37,14.37,0,0,1,342.84,353.34Z"/><path class="cls-3" d="M453.51,364.46c-18.88,1.25-37.75,1.91-56.62,2.4s-37.75.73-56.63.8-37.74,0-56.62-.14l-28.31-.1-14.15,0-14.16,0-56.62.2c-9.43.06-18.87.07-28.31.08s-18.87.05-28.31,0-18.87-.09-28.31-.2l-14.15-.15-14.16-.25c-18.87-.45-37.75-1.14-56.62-2.64a.58.58,0,0,1,0-1.16c18.87-1.5,37.75-2.19,56.62-2.64l14.16-.25,14.15-.15c9.44-.11,18.87-.16,28.31-.2s18.88,0,28.31,0,18.88,0,28.31.08l56.62.21,14.16,0,14.15,0,28.31-.1q28.32-.19,56.62-.14t56.63.8c18.87.49,37.74,1.15,56.62,2.4a.58.58,0,0,1,.54.62A.57.57,0,0,1,453.51,364.46Z"/></g></g></svg>